#!OML:ASF H:\GeneralSubjects\Female5\Project 1\Capture day 1\Session 1\Female5.ASF
:FULLY-SPECIFIED
:DEGREES
194
root -24.2162 15.8188 1.09759 -157.061 69.9548 194.746
lowerback 5.29589 1.90494 6.43685
upperback -11.3324 4.41889 2.49969
thorax -15.3569 1.7843 -1.65514
lowerneck -23.1016 -8.6437 -13.7217
upperneck 46.3489 -5.01427 1.61392
head 26.3977 -3.25016 2.64234
rclavicle 7.25564e-015 -2.18663e-014
rhumerus -6.45008 -4.4901 -56.4163
rradius 79.7592
rwrist 18.7072
rhand -18.3707 -27.55
rfingers 7.12502
rthumb 7.91254 -57.3819
lclavicle 7.25564e-015 -2.18663e-014
lhumerus -51.9682 15.9255 61.7728
lradius 43.7198
lwrist -4.84713
lhand -15.8402 35.9868
lfingers 7.12502
lthumb 10.3543 65.7119
rfemur 13.4837 27.6033 44.9649
rtibia -6.73843
rfoot -37.3599 -35.1723
rtoes 6.41172
lfemur -28.8012 -20.7141 -8.25651
ltibia 21.1776
lfoot -12.0423 10.0492
ltoes -77.0666
195
root -24.2267 15.818 1.10814 -157.265 69.6434 194.627
lowerback 5.27813 1.87822 6.43901
upperback -11.2843 4.38334 2.55448
thorax -15.293 1.77448 -1.58738
lowerneck -23.099 -8.72287 -13.8678
upperneck 46.3285 -5.08763 1.64813
head 26.4125 -3.29838 2.66818
rclavicle 4.96962e-015 9.54166e-015
rhumerus -6.29239 -4.06662 -55.5962
rradius 80.2254
rwrist 19.0531
rhand -16.9825 -24.6959
rfingers 7.12502
rthumb 9.25224 -54.4729
lclavicle 4.96962e-015 9.54166e-015
lhumerus -52.2755 16.0624 61.337
lradius 43.5853
lwrist -5.00246
lhand -15.4517 36.0599
lfingers 7.12502
lthumb 10.729 65.7659
rfemur 13.4555 27.3019 45.0037
rtibia -6.74165
rfoot -37.143 -35.3717
rtoes 5.58263
lfemur -28.9333 -20.9022 -8.18297
ltibia 21.2626
lfoot -12.1368 9.93908
ltoes -77.041
196
root -24.2357 15.8156 1.11729 -157.775 69.3919 194.113
lowerback 5.18705 1.83591 6.3816
upperback -11.2786 4.30654 2.5332
thorax -15.2325 1.74622 -1.56162
lowerneck -23.0172 -8.74309 -13.9981
upperneck 46.3219 -5.07332 1.6808
head 26.3845 -3.31235 2.71886
rclavicle -4.14466e-014 -3.22031e-014
rhumerus -6.05535 -3.51956 -54.8187
rradius 80.5429
rwrist 20.2728
rhand -16.1596 -23.5463
rfingers 7.12502
rthumb 10.0462 -53.2865
lclavicle -4.14466e-014 -3.22031e-014
lhumerus -52.5908 16.2475 60.8435
lradius 43.3577
lwrist -5.02019
lhand -15.4559 36.2724
lfingers 7.12502
lthumb 10.7251 65.9786
rfemur 13.4471 27.0606 44.8783
rtibia -6.83524
rfoot -37.6117 -35.3633
rtoes 5.71135
lfemur -29.0988 -21.1291 -8.30067
ltibia 21.3561
lfoot -12.1343 9.79694
ltoes -77.0261
197
root -24.2433 15.8129 1.12702 -158.277 69.1997 193.622
lowerback 5.13373 1.79714 6.29187
upperback -11.309 4.2396 2.5089
thorax -15.2423 1.72412 -1.52596
lowerneck -22.8479 -8.72772 -14.0512
upperneck 46.344 -5.00907 1.6438
head 26.32 -3.29957 2.73001
rclavicle -4.87022e-015 8.11041e-014
rhumerus -5.8514 -2.93239 -54.1091
rradius 80.7458
rwrist 21.7546
rhand -15.3379 -23.6663
rfingers 7.12502
rthumb 10.8389 -53.3666
lclavicle -4.87022e-015 8.11041e-014
lhumerus -52.9693 16.4565 60.3163
lradius 43.0936
lwrist -5.00966
lhand -15.5943 36.6107
lfingers 7.12502
lthumb 10.5915 66.3238
rfemur 13.5085 27.0095 44.8073
rtibia -6.95108
rfoot -38.9535 -35.5062
rtoes 6.82094
lfemur -29.2125 -21.2209 -8.46913
ltibia 21.4493
lfoot -12.042 9.58682
ltoes -77.0391
198
root -24.2514 15.8128 1.13733 -158.263 69.0447 193.697
lowerback 5.148 1.78285 6.33522
upperback -11.2961 4.22834 2.52595
thorax -15.2359 1.71553 -1.52943
lowerneck -22.9021 -8.78419 -14.0296
upperneck 46.3491 -5.09141 1.60612
head 26.3637 -3.32815 2.67715
rclavicle -5.77469e-014 -6.32135e-014
rhumerus -5.49465 -2.56521 -53.5114
rradius 80.95
rwrist 22.2528
rhand -13.8104 -24.333
rfingers 7.12502
rthumb 12.3119 -53.9505
lclavicle -5.77469e-014 -6.32135e-014
lhumerus -53.21 16.7593 59.7155
lradius 42.7752
lwrist -5.2391
lhand -15.9823 37.0083
lfingers 7.12502
lthumb 10.2172 66.7401
rfemur 13.5376 27.0663 44.9451
rtibia -6.97233
rfoot -38.4561 -34.6035
rtoes 8.25377
lfemur -29.2963 -21.2296 -8.37006
ltibia 21.5098
lfoot -12.0258 9.42439
ltoes -77.0535
199
root -24.2597 15.8125 1.14704 -158.013 68.9125 194.052
lowerback 5.18287 1.76904 6.44973
upperback -11.2816 4.23334 2.5705
thorax -15.2395 1.70852 -1.54527
lowerneck -22.9078 -8.85118 -14.0165
upperneck 46.3819 -5.20615 1.60036
head 26.4289 -3.36447 2.63934
rclavicle -1.87852e-014 1.59028e-015
rhumerus -5.01271 -2.35596 -53.0708
rradius 81.1194
rwrist 21.8952
rhand -11.6315 -25.1836
rfingers 7.12502
rthumb 14.4121 -54.6632
lclavicle -1.87852e-014 1.59028e-015
lhumerus -53.4486 16.8918 59.155
lradius 42.5191
lwrist -5.39725
lhand -16.4148 37.363
lfingers 7.12502
lthumb 9.80001 67.1149
rfemur 13.5246 27.0197 45.1515
rtibia -6.87514
rfoot -38.7135 -34.5657
rtoes 8.48805
lfemur -29.3104 -21.3004 -8.13122
ltibia 21.4928
lfoot -12.0558 9.36455
ltoes -77.0721
200
root -24.2697 15.811 1.15586 -157.994 68.7932 194.188
lowerback 5.24413 1.75214 6.50969
upperback -11.2447 4.22265 2.60379
thorax -15.2344 1.69845 -1.54159
lowerneck -22.9129 -8.87237 -13.938
upperneck 46.3876 -5.2101 1.46139
head 26.4139 -3.3658 2.53585
rclavicle -3.18055e-014 -1.07344e-014
rhumerus -4.47413 -2.16771 -52.6905
rradius 81.0898
rwrist 21.4383
rhand -10.2123 -25.8056
rfingers 7.12502
rthumb 15.7792 -55.1825
lclavicle -3.18055e-014 -1.07344e-014
lhumerus -53.6442 17.0438 58.7134
lradius 42.3413
lwrist -5.34083
lhand -16.4074 37.6708
lfingers 7.12502
lthumb 9.80715 67.4224
rfemur 13.5792 27.039 45.3201
rtibia -6.8013
rfoot -39.5933 -33.7411
rtoes 11.2333
lfemur -29.2864 -21.3863 -8.02046
ltibia 21.4736
lfoot -12.0878 9.31181
ltoes -77.0868
201
root -24.2808 15.8093 1.16407 -158.158 68.6858 194.061
lowerback 5.26227 1.73573 6.56612
upperback -11.2252 4.20313 2.58674
thorax -15.2189 1.68104 -1.58865
lowerneck -22.972 -8.89211 -13.8789
upperneck 46.3854 -5.16544 1.26983
head 26.4053 -3.36217 2.41531
rclavicle -6.16232e-015 -3.89618e-014
rhumerus -4.01641 -1.9606 -52.305
rradius 80.9277
rwrist 21.3819
rhand -10.3661 -26.0964
rfingers 7.12502
rthumb 15.6311 -55.4849
lclavicle -6.16232e-015 -3.89618e-014
lhumerus -53.8027 17.3026 58.2817
lradius 42.1668
lwrist -5.30017
lhand -16.0944 37.7129
lfingers 7.12502
lthumb 10.1091 67.4501
rfemur 13.6267 27.168 45.3917
rtibia -6.83999
rfoot -39.2388 -34.8033
rtoes 9.32995
lfemur -29.3513 -21.4188 -8.02305
ltibia 21.4825
lfoot -12.0867 9.23428
ltoes -77.0887
202
root -24.2904 15.807 1.17059 -158.381 68.6223 193.788
lowerback 5.20095 1.72504 6.59405
upperback -11.2398 4.18097 2.53353
thorax -15.1927 1.66435 -1.65672
lowerneck -22.9599 -8.88933 -13.912
upperneck 46.3961 -5.10727 1.21418
head 26.4023 -3.35475 2.40466
rclavicle -3.27995e-014 9.14409e-015
rhumerus -3.62379 -1.83402 -51.9842
rradius 80.7921
rwrist 22.1553
rhand -10.4028 -25.4068
rfingers 7.12502
rthumb 15.5957 -54.7981
lclavicle -3.27995e-014 9.14409e-015
lhumerus -54.0028 17.5769 57.7819
lradius 41.9816
lwrist -5.3407
lhand -15.8437 37.4725
lfingers 7.12502
lthumb 10.351 67.1978
rfemur 13.6085 27.2262 45.334
rtibia -6.9105
rfoot -39.1626 -35.0523
rtoes 9.02655
lfemur -29.4666 -21.4311 -8.08669
ltibia 21.4665
lfoot -12.0623 9.12743
ltoes -77.088
203
root -24.2974 15.806 1.17457 -158.555 68.6133 193.618
lowerback 5.12484 1.73181 6.52996
upperback -11.2279 4.16815 2.50589
thorax -15.1292 1.6656 -1.64601
lowerneck -22.8957 -8.86292 -13.9126
upperneck 46.3909 -5.10547 1.28223
head 26.3692 -3.34447 2.44992
rclavicle -2.5345e-014 1.43125e-014
rhumerus -3.25227 -1.71683 -51.7052
rradius 80.5355
rwrist 23.2039
rhand -9.56548 -24.3618
rfingers 7.12502
rthumb 16.402 -53.6884
lclavicle -2.5345e-014 1.43125e-014
lhumerus -54.1509 17.7293 57.4056
lradius 41.8411
lwrist -5.19288
lhand -15.8573 37.3226
lfingers 7.12502
lthumb 10.3378 67.0485
rfemur 13.6731 27.2744 45.3201
rtibia -6.9898
rfoot -39.2343 -35.084
rtoes 9.25443
lfemur -29.4533 -21.4301 -8.16996
ltibia 21.4073
lfoot -12.0651 9.04724
ltoes -77.0864
